<mxfile host="app.diagrams.net" agent="Mozilla/5.0 (Windows NT 10.0; Win64; x64) AppleWebKit/537.36 (KHTML, like Gecko) Chrome/132.0.0.0 Safari/537.36" version="26.0.11">
  <diagram name="Page-1" id="9MtJoII5npJp3M1QNiom">
    <mxGraphModel dx="1430" dy="757" grid="1" gridSize="10" guides="1" tooltips="1" connect="1" arrows="1" fold="1" page="1" pageScale="1" pageWidth="850" pageHeight="1100" math="0" shadow="0">
      <root>
        <mxCell id="0" />
        <mxCell id="1" parent="0" />
        <mxCell id="-G3xAe0o0B6a-7w-6uJA-1" value="Create&lt;div&gt;Profile&lt;/div&gt;" style="ellipse;whiteSpace=wrap;html=1;aspect=fixed;" vertex="1" parent="1">
          <mxGeometry x="385" y="250" width="80" height="80" as="geometry" />
        </mxCell>
        <mxCell id="-G3xAe0o0B6a-7w-6uJA-2" value="Name" style="rounded=0;whiteSpace=wrap;html=1;" vertex="1" parent="1">
          <mxGeometry x="365" y="370" width="120" height="60" as="geometry" />
        </mxCell>
        <mxCell id="-G3xAe0o0B6a-7w-6uJA-3" value="Bio" style="rounded=0;whiteSpace=wrap;html=1;" vertex="1" parent="1">
          <mxGeometry x="365" y="470" width="120" height="60" as="geometry" />
        </mxCell>
        <mxCell id="-G3xAe0o0B6a-7w-6uJA-4" value="Set Location" style="rounded=0;whiteSpace=wrap;html=1;" vertex="1" parent="1">
          <mxGeometry x="365" y="560" width="120" height="60" as="geometry" />
        </mxCell>
        <mxCell id="-G3xAe0o0B6a-7w-6uJA-5" value="Upload Profile Picture" style="rounded=0;whiteSpace=wrap;html=1;" vertex="1" parent="1">
          <mxGeometry x="200" y="260" width="120" height="60" as="geometry" />
        </mxCell>
        <mxCell id="-G3xAe0o0B6a-7w-6uJA-6" value="Accept User Agreement" style="rounded=0;whiteSpace=wrap;html=1;" vertex="1" parent="1">
          <mxGeometry x="365" y="660" width="120" height="60" as="geometry" />
        </mxCell>
        <mxCell id="-G3xAe0o0B6a-7w-6uJA-7" value="" style="endArrow=classic;html=1;rounded=0;entryX=0.5;entryY=0;entryDx=0;entryDy=0;" edge="1" parent="1" target="-G3xAe0o0B6a-7w-6uJA-2">
          <mxGeometry width="50" height="50" relative="1" as="geometry">
            <mxPoint x="425" y="330" as="sourcePoint" />
            <mxPoint x="475" y="280" as="targetPoint" />
          </mxGeometry>
        </mxCell>
        <mxCell id="-G3xAe0o0B6a-7w-6uJA-8" value="" style="endArrow=classic;html=1;rounded=0;entryX=0.5;entryY=0;entryDx=0;entryDy=0;" edge="1" parent="1">
          <mxGeometry width="50" height="50" relative="1" as="geometry">
            <mxPoint x="425" y="430" as="sourcePoint" />
            <mxPoint x="425" y="470" as="targetPoint" />
          </mxGeometry>
        </mxCell>
        <mxCell id="-G3xAe0o0B6a-7w-6uJA-9" value="" style="endArrow=classic;html=1;rounded=0;entryX=0.5;entryY=0;entryDx=0;entryDy=0;" edge="1" parent="1">
          <mxGeometry width="50" height="50" relative="1" as="geometry">
            <mxPoint x="424" y="520" as="sourcePoint" />
            <mxPoint x="424" y="560" as="targetPoint" />
          </mxGeometry>
        </mxCell>
        <mxCell id="-G3xAe0o0B6a-7w-6uJA-10" value="" style="endArrow=classic;html=1;rounded=0;entryX=0.5;entryY=0;entryDx=0;entryDy=0;" edge="1" parent="1">
          <mxGeometry width="50" height="50" relative="1" as="geometry">
            <mxPoint x="425" y="620" as="sourcePoint" />
            <mxPoint x="425" y="660" as="targetPoint" />
          </mxGeometry>
        </mxCell>
        <mxCell id="-G3xAe0o0B6a-7w-6uJA-11" value="" style="endArrow=classic;html=1;rounded=0;entryX=1;entryY=0.5;entryDx=0;entryDy=0;exitX=0;exitY=0.5;exitDx=0;exitDy=0;" edge="1" parent="1" source="-G3xAe0o0B6a-7w-6uJA-1" target="-G3xAe0o0B6a-7w-6uJA-5">
          <mxGeometry width="50" height="50" relative="1" as="geometry">
            <mxPoint x="380" y="290" as="sourcePoint" />
            <mxPoint x="465" y="410" as="targetPoint" />
          </mxGeometry>
        </mxCell>
        <mxCell id="-G3xAe0o0B6a-7w-6uJA-12" value="Is the user verified?" style="rhombus;whiteSpace=wrap;html=1;" vertex="1" parent="1">
          <mxGeometry x="730" y="250" width="70" height="80" as="geometry" />
        </mxCell>
        <mxCell id="-G3xAe0o0B6a-7w-6uJA-13" value="" style="endArrow=classic;html=1;rounded=0;entryX=0;entryY=0.5;entryDx=0;entryDy=0;exitX=1;exitY=0.5;exitDx=0;exitDy=0;" edge="1" parent="1" source="-G3xAe0o0B6a-7w-6uJA-1" target="-G3xAe0o0B6a-7w-6uJA-14">
          <mxGeometry width="50" height="50" relative="1" as="geometry">
            <mxPoint x="395" y="300" as="sourcePoint" />
            <mxPoint x="330" y="300" as="targetPoint" />
          </mxGeometry>
        </mxCell>
        <mxCell id="-G3xAe0o0B6a-7w-6uJA-14" value="Apply to be a world leader" style="rounded=0;whiteSpace=wrap;html=1;" vertex="1" parent="1">
          <mxGeometry x="540" y="260" width="120" height="60" as="geometry" />
        </mxCell>
        <mxCell id="-G3xAe0o0B6a-7w-6uJA-15" value="" style="endArrow=classic;html=1;rounded=0;entryX=0;entryY=0.5;entryDx=0;entryDy=0;exitX=1;exitY=0.5;exitDx=0;exitDy=0;" edge="1" parent="1">
          <mxGeometry width="50" height="50" relative="1" as="geometry">
            <mxPoint x="660" y="289.5" as="sourcePoint" />
            <mxPoint x="735" y="289.5" as="targetPoint" />
          </mxGeometry>
        </mxCell>
        <mxCell id="-G3xAe0o0B6a-7w-6uJA-16" value="" style="endArrow=classic;html=1;rounded=0;exitX=0.5;exitY=1;exitDx=0;exitDy=0;entryX=0.5;entryY=0;entryDx=0;entryDy=0;" edge="1" parent="1" source="-G3xAe0o0B6a-7w-6uJA-12" target="-G3xAe0o0B6a-7w-6uJA-17">
          <mxGeometry width="50" height="50" relative="1" as="geometry">
            <mxPoint x="765" y="390" as="sourcePoint" />
            <mxPoint x="800" y="360" as="targetPoint" />
          </mxGeometry>
        </mxCell>
        <mxCell id="-G3xAe0o0B6a-7w-6uJA-17" value="Error: User is not a world leader" style="rounded=0;whiteSpace=wrap;html=1;" vertex="1" parent="1">
          <mxGeometry x="705" y="380" width="120" height="60" as="geometry" />
        </mxCell>
        <mxCell id="-G3xAe0o0B6a-7w-6uJA-18" value="" style="endArrow=classic;html=1;rounded=0;exitX=0.5;exitY=0;exitDx=0;exitDy=0;" edge="1" parent="1" source="-G3xAe0o0B6a-7w-6uJA-12">
          <mxGeometry width="50" height="50" relative="1" as="geometry">
            <mxPoint x="775" y="340" as="sourcePoint" />
            <mxPoint x="765" y="190" as="targetPoint" />
          </mxGeometry>
        </mxCell>
        <mxCell id="-G3xAe0o0B6a-7w-6uJA-19" value="Yes" style="text;html=1;align=center;verticalAlign=middle;whiteSpace=wrap;rounded=0;" vertex="1" parent="1">
          <mxGeometry x="765" y="210" width="60" height="30" as="geometry" />
        </mxCell>
        <mxCell id="-G3xAe0o0B6a-7w-6uJA-20" value="No" style="text;html=1;align=center;verticalAlign=middle;whiteSpace=wrap;rounded=0;" vertex="1" parent="1">
          <mxGeometry x="765" y="330" width="60" height="30" as="geometry" />
        </mxCell>
        <mxCell id="-G3xAe0o0B6a-7w-6uJA-21" value="User has been promoted to world leader status" style="rounded=0;whiteSpace=wrap;html=1;" vertex="1" parent="1">
          <mxGeometry x="705" y="130" width="120" height="60" as="geometry" />
        </mxCell>
        <mxCell id="-G3xAe0o0B6a-7w-6uJA-22" value="Save Changes" style="rounded=0;whiteSpace=wrap;html=1;" vertex="1" parent="1">
          <mxGeometry x="365" y="760" width="120" height="60" as="geometry" />
        </mxCell>
        <mxCell id="-G3xAe0o0B6a-7w-6uJA-24" value="" style="endArrow=classic;html=1;rounded=0;" edge="1" parent="1">
          <mxGeometry width="50" height="50" relative="1" as="geometry">
            <mxPoint x="485" y="400" as="sourcePoint" />
            <mxPoint x="550" y="400" as="targetPoint" />
          </mxGeometry>
        </mxCell>
        <mxCell id="-G3xAe0o0B6a-7w-6uJA-25" value="" style="endArrow=classic;html=1;rounded=0;" edge="1" parent="1">
          <mxGeometry width="50" height="50" relative="1" as="geometry">
            <mxPoint x="485" y="499.58" as="sourcePoint" />
            <mxPoint x="550" y="499.58" as="targetPoint" />
          </mxGeometry>
        </mxCell>
        <mxCell id="-G3xAe0o0B6a-7w-6uJA-26" value="" style="endArrow=classic;html=1;rounded=0;" edge="1" parent="1">
          <mxGeometry width="50" height="50" relative="1" as="geometry">
            <mxPoint x="485" y="589.58" as="sourcePoint" />
            <mxPoint x="550" y="589.58" as="targetPoint" />
          </mxGeometry>
        </mxCell>
        <mxCell id="-G3xAe0o0B6a-7w-6uJA-27" value="" style="endArrow=classic;html=1;rounded=0;" edge="1" parent="1">
          <mxGeometry width="50" height="50" relative="1" as="geometry">
            <mxPoint x="485" y="689.5799999999999" as="sourcePoint" />
            <mxPoint x="550" y="689.5799999999999" as="targetPoint" />
          </mxGeometry>
        </mxCell>
        <mxCell id="-G3xAe0o0B6a-7w-6uJA-28" value="" style="endArrow=classic;html=1;rounded=0;entryX=1;entryY=0.5;entryDx=0;entryDy=0;" edge="1" parent="1" target="-G3xAe0o0B6a-7w-6uJA-22">
          <mxGeometry width="50" height="50" relative="1" as="geometry">
            <mxPoint x="550" y="400" as="sourcePoint" />
            <mxPoint x="490" y="800" as="targetPoint" />
            <Array as="points">
              <mxPoint x="550" y="790" />
            </Array>
          </mxGeometry>
        </mxCell>
        <mxCell id="-G3xAe0o0B6a-7w-6uJA-29" value="" style="endArrow=classic;html=1;rounded=0;" edge="1" parent="1">
          <mxGeometry width="50" height="50" relative="1" as="geometry">
            <mxPoint x="265" y="320" as="sourcePoint" />
            <mxPoint x="364" y="790" as="targetPoint" />
            <Array as="points">
              <mxPoint x="270" y="790" />
            </Array>
          </mxGeometry>
        </mxCell>
        <mxCell id="-G3xAe0o0B6a-7w-6uJA-30" value="End" style="ellipse;whiteSpace=wrap;html=1;aspect=fixed;" vertex="1" parent="1">
          <mxGeometry x="385" y="880" width="80" height="80" as="geometry" />
        </mxCell>
        <mxCell id="-G3xAe0o0B6a-7w-6uJA-32" value="" style="endArrow=classic;html=1;rounded=0;exitX=0.5;exitY=1;exitDx=0;exitDy=0;entryX=0.5;entryY=0;entryDx=0;entryDy=0;" edge="1" parent="1" source="-G3xAe0o0B6a-7w-6uJA-22" target="-G3xAe0o0B6a-7w-6uJA-30">
          <mxGeometry width="50" height="50" relative="1" as="geometry">
            <mxPoint x="420" y="830" as="sourcePoint" />
            <mxPoint x="430" y="880" as="targetPoint" />
          </mxGeometry>
        </mxCell>
        <mxCell id="-G3xAe0o0B6a-7w-6uJA-33" value="" style="endArrow=classic;html=1;rounded=0;" edge="1" parent="1">
          <mxGeometry width="50" height="50" relative="1" as="geometry">
            <mxPoint x="700" y="160" as="sourcePoint" />
            <mxPoint x="430" y="340" as="targetPoint" />
            <Array as="points">
              <mxPoint x="500" y="160" />
              <mxPoint x="500" y="340" />
            </Array>
          </mxGeometry>
        </mxCell>
        <mxCell id="-G3xAe0o0B6a-7w-6uJA-35" value="" style="endArrow=classic;html=1;rounded=0;exitX=0.013;exitY=0.59;exitDx=0;exitDy=0;exitPerimeter=0;" edge="1" parent="1" source="-G3xAe0o0B6a-7w-6uJA-17">
          <mxGeometry width="50" height="50" relative="1" as="geometry">
            <mxPoint x="650" y="440" as="sourcePoint" />
            <mxPoint x="430" y="360" as="targetPoint" />
            <Array as="points">
              <mxPoint x="590" y="415" />
              <mxPoint x="590" y="360" />
            </Array>
          </mxGeometry>
        </mxCell>
      </root>
    </mxGraphModel>
  </diagram>
</mxfile>
